<svg height="490pt" viewBox="-43 0 490 490" width="490pt" xmlns="http://www.w3.org/2000/svg"><path d="m205 136h58.644531c3.3125 0 6-2.6875 6-6s-2.6875-6-6-6h-58.644531c-3.3125 0-6 2.6875-6 6s2.6875 6 6 6zm0 0"/><path d="m313.644531 164h-108.644531c-3.3125 0-6 2.6875-6 6s2.6875 6 6 6h108.644531c3.316407 0 6-2.6875 6-6s-2.683593-6-6-6zm0 0"/><path d="m313.644531 204h-108.644531c-3.3125 0-6 2.6875-6 6s2.6875 6 6 6h108.644531c3.316407 0 6-2.6875 6-6s-2.683593-6-6-6zm0 0"/><path d="m313.644531 244h-108.644531c-3.3125 0-6 2.6875-6 6s2.6875 6 6 6h108.644531c3.316407 0 6-2.6875 6-6s-2.683593-6-6-6zm0 0"/><path d="m313.644531 284h-108.644531c-3.3125 0-6 2.6875-6 6s2.6875 6 6 6h108.644531c3.316407 0 6-2.6875 6-6s-2.683593-6-6-6zm0 0"/><path d="m313.644531 324h-108.644531c-3.3125 0-6 2.6875-6 6s2.6875 6 6 6h108.644531c3.316407 0 6-2.6875 6-6s-2.683593-6-6-6zm0 0"/><path d="m145.609375 258h-10.609375v-.339844c3-2.660156 6.6875-5.789062 10.40625-9.503906 10.042969-10.03125 17.328125-20.605469 21.867188-31.4375 6.375-15.226562 6.613281-31.59375.757812-46.101562-4.417969-10.949219-12.566406-17.441407-21.566406-17.671876-9.6875-19.945312-32.464844-29.859374-53.664063-23.363281-17.902343 5.175781-32.679687 17.1875-40.542969 32.964844-4.679687 9.429687-6.90625 19.886719-6.472656 30.40625 1.085938 26.292969 15.214844 50.773437 37.214844 63.433594v1.613281h-10.609375c-21.550781 0-39.390625 17.398438-39.390625 38.957031v31.386719c0 3.3125 2.992188 5.65625 6.300781 5.65625h139.398438c3.3125 0 6.300781-2.34375 6.300781-5.65625v-31.386719c0-21.558593-17.839844-38.957031-39.390625-38.957031zm-50.609375 5.867188v-7.644532c4.515625 1.246094 9.191406 1.847656 13.875 1.777344h.347656c4.65625.039062 9.292969-.574219 13.777344-1.820312v8.316406c0 7.730468-6.269531 14-14 14s-14-6.269532-14-14zm47-67.792969v16.226562c0 18.625-14.722656 33.882813-33.070312 34.019531-8.949219.074219-17.5625-3.421874-23.929688-9.714843s-9.96875-14.863281-10-23.816407v-2.613281c22.644531-4.367187 42.386719-18.105469 54.347656-37.820312 1.355469.511719 2.648438 1.167969 3.855469 1.960937 5.863281 4.015625 9.265625 10.75 9.011719 17.851563zm2.066406-30.898438c7.621094-1.808593 11.988282 7.960938 12.785156 9.9375 4.664063 11.554688 4.402344 24.683594-.753906 36.972657-.566406 1.347656-1.394531 2.699218-2.066406 4.042968.101562-1.265625-.03125-2.539062-.03125-3.832031v-16.132813l.257812-3.820312c.277344-10.71875-4.703124-20.890625-13.335937-27.242188 1.023437.285157 2.105469.308594 3.144531.070313zm-81.066406 2.722657c6.371094-12.78125 18.445312-22.542969 33.128906-26.789063 8.1875-2.535156 17.039063-1.804687 24.699219 2.035156 7.222656 3.761719 12.875 9.957031 15.960937 17.488281l.203126.601563c.234374.710937.605468 1.375 1.085937 1.949219-3.277344-1.902344-6.894531-3.152344-10.652344-3.6875-2.46875-.339844-4.890625.878906-6.085937 3.066406-17.628906 32.265625-48.820313 36.050781-51.488282 36.320312-3.765624.152344-6.765624 3.203126-6.851562 6.96875v6.9375c0 1.320313.242188 2.628907.355469 3.925782-3.359375-7.667969-5.25-15.894532-5.582031-24.257813-.347657-8.496093 1.449218-16.941406 5.226562-24.558593zm110 154.101562h-128v-25.042969c0-14.9375 12.453125-26.957031 27.390625-26.957031h11.355469c2.480468 11 12.808594 20.324219 25.132812 20.324219 12.324219 0 22.652344-9.324219 25.132813-20.324219h11.597656c14.9375 0 27.390625 12.019531 27.390625 26.957031zm0 0"/><path d="m322.78125 0h-290.921875c-17.824219 0-31.859375 14.613281-31.859375 32.4375v375.765625c0 17.824219 14.035156 32.796875 31.859375 32.796875h16.140625v16.5625c0 17.824219 14.90625 32.4375 32.730469 32.4375h291.410156c17.824219 0 31.859375-14.613281 31.859375-32.4375v-376.253906c.09375-8.519532-3.21875-16.726563-9.199219-22.792969-5.984375-6.066406-14.140625-9.492187-22.660156-9.515625h-17.140625v-16.5625c.039062-17.847656-14.375-32.3554688-32.21875-32.4375zm21.21875 407.679688c0 11.222656-9.097656 20.320312-20.320312 20.320312h-291.359376c-11.222656 0-20.320312-9.097656-20.320312-20.320312v-375.359376c0-11.222656 9.097656-20.320312 20.320312-20.320312h291.359376c11.222656 0 20.320312 9.097656 20.320312 20.320312zm28.140625-346.679688c11.207031 0 19.859375 9.101562 19.859375 20.308594v376.253906c0 11.207031-8.652344 20.4375-19.859375 20.4375h-291.410156c-11.199219 0-20.730469-9.230469-20.730469-20.4375v-16.5625h262.78125c17.820312 0 32.21875-14.972656 32.21875-32.796875v-347.203125zm0 0"/></svg>